Coordinates
version=1
nRows=16
nColumns=28
inDegrees=yes

Units are S.I. units (second, meters, Newtons, ...)
Angles are in degrees.

endheader
time	pelvis_tilt	pelvis_list	pelvis_rotation	pelvis_tx	pelvis_ty	pelvis_tz	hip_flexion_r	hip_adduction_r	hip_rotation_r	knee_angle_r	ankle_angle_r	subtalar_angle_r	mtp_angle_r	hip_flexion_l	hip_adduction_l	hip_rotation_l	knee_angle_l	socket_flexion	socket_adduction	socket_rotation	socket_tx	socket_ty	socket_tz	foot_flex	lumbar_extension	lumbar_bending	lumbar_rotation
      0.00000000	      1.37949417	    -15.72802634	    -12.61264410	     -0.75610603	      0.99387391	      0.33870806	    -23.06466742	     12.68885219	     -1.06953806	    -11.48449667	     -1.94051042	      9.47786888	     42.32974173	     25.28030551	    -17.05274181	     27.48224176	    -12.43344211	     -2.63712210	      2.23214083	    -18.21919953	      0.00000000	     -0.01242268	      0.00000000	     -1.09961100	    -17.36076756	     14.84545035	     22.12785289
      0.00416667	      1.30378233	    -15.75389606	    -12.58340139	     -0.75070428	      0.99297475	      0.33817516	    -23.17397692	     12.63157375	     -1.00437428	    -11.67343032	     -1.98041284	      9.47105203	     42.33386067	     25.10034828	    -16.98304135	     27.54040371	    -12.46265018	     -2.63242711	      2.19015066	    -18.15760819	      0.00000000	     -0.01313184	      0.00000000	     -1.22150663	    -17.18777446	     14.91014699	     22.11961693
      0.00833333	      1.19611928	    -15.77548466	    -12.61349551	     -0.74516891	      0.99207262	      0.33772058	    -23.18165456	     12.55267003	     -1.00190878	    -12.00624607	     -2.17654053	      9.39329101	     42.34817681	     24.88282487	    -16.96302007	     27.54393415	    -12.34821850	     -2.61268899	      2.09309487	    -18.02472896	      0.00000000	     -0.01406880	      0.00000000	     -1.80346940	    -17.03751842	     14.96015743	     22.06641298
      0.01250000	      1.07939731	    -15.79071770	    -12.65032033	     -0.73936203	      0.99116469	      0.33728146	    -23.18959198	     12.46484948	     -0.97874381	    -12.33973829	     -2.42146717	      9.29383129	     42.39050633	     24.65863199	    -16.93857726	     27.49433246	    -12.22785513	     -2.54729236	      2.00347299	    -17.90513981	      0.00000000	     -0.01499853	      0.00000000	     -2.18614757	    -16.84037295	     15.00053010	     22.03081451
      0.01666667	      0.99531616	    -15.80558528	    -12.61472698	     -0.73335416	      0.99025505	      0.33668046	    -23.28887100	     12.39756092	     -0.88713490	    -12.55978156	     -2.48832162	      9.28173685	     42.40079863	     24.44842996	    -16.85081484	     27.56368958	    -12.25052107	     -2.55590786	      1.96583019	    -17.81892436	      0.00000000	     -0.01580720	      0.00000000	     -2.29187695	    -16.64797439	     15.07147168	     22.02934216
      0.02083333	      0.87463343	    -15.79287025	    -12.64683452	     -0.72734571	      0.98938293	      0.33615152	    -23.24907273	     12.27714427	     -0.84573955	    -12.96494576	     -2.81551518	      9.14338604	     42.43691006	     24.22582324	    -16.78998588	     27.52931592	    -12.14753259	     -2.53100805	      1.87019940	    -17.67134996	      0.00000000	     -0.01675722	      0.00000000	     -2.83364965	    -16.46677978	     15.08051093	     21.99163013
      0.02500000	      0.67624314	    -15.74108752	    -12.86494113	     -0.72102624	      0.98867003	      0.33609458	    -23.22938338	     12.12078849	     -0.42178630	    -13.18718880	     -3.56714867	      8.08746675	     43.77748384	     23.85295586	    -16.85819286	     27.25703861	    -11.60296795	     -2.20608256	      1.71333815	    -17.54712948	      0.00000000	     -0.01781326	      0.00000000	     -3.12884635	    -16.16807448	     15.00846303	     22.17944591
      0.02916667	      0.60830178	    -15.75578051	    -12.78947665	     -0.71471153	      0.98788118	      0.33543351	    -23.32615171	     12.07296806	     -0.32022604	    -13.44754794	     -3.64187073	      8.08269801	     43.77884709	     23.63703682	    -16.74547274	     27.32123995	    -11.65874468	     -2.20549279	      1.68238363	    -17.47714970	      0.00000000	     -0.01868125	      0.00000000	     -3.23628674	    -15.96414632	     15.07235313	     22.16907475
      0.03333333	      0.51679505	    -15.68540236	    -12.78604683	     -0.70857981	      0.98720067	      0.33482300	    -23.20394693	     11.90993981	     -0.34518879	    -14.00298884	     -4.09458983	      7.91127494	     43.75043705	     23.42578303	    -16.58591124	     27.31659526	    -11.66016215	     -2.21917936	      1.60003209	    -17.36035555	      0.00000000	     -0.01951777	      0.00000000	     -3.79962002	    -15.81310746	     15.01413685	     22.04809395
      0.03750000	      0.34120373	    -15.46808007	    -12.74337348	     -0.70200714	      0.98645606	      0.33429487	    -23.04006468	     11.64897182	     -0.42882288	    -14.41383077	     -4.65606845	      7.49723861	     43.85961897	     23.30420611	    -16.27952307	     27.17813078	    -11.65004210	     -2.18007197	      1.53388107	    -17.18337740	      0.00000000	     -0.02018710	      0.00000000	     -3.97925312	    -15.41629225	     14.83181611	     21.85343562
      0.04166667	      0.28572333	    -15.46992927	    -12.63574707	     -0.69553828	      0.98585667	      0.33358301	    -23.10335967	     11.60544879	     -0.29539343	    -14.71741870	     -4.75441123	      7.47900771	     43.86713276	     23.08152848	    -16.14618148	     27.23930067	    -11.71724014	     -2.16228805	      1.52974206	    -17.10679681	      0.00000000	     -0.02111843	      0.00000000	     -4.08897313	    -15.20770369	     14.87848387	     21.83796205
      0.04583333	      0.16304518	    -15.23998926	    -12.65065272	     -0.68933217	      0.98538515	      0.33298352	    -22.80756474	     11.29304915	     -0.38448136	    -15.42784244	     -5.48752297	      6.99953437	     43.89687335	     22.92768769	    -15.82569010	     27.14401298	    -11.78621880	     -2.17815475	      1.47784331	    -17.02739524	      0.00000000	     -0.02169657	      0.00000000	     -4.52109699	    -14.97943366	     14.65120317	     21.61424360
      0.05000000	      0.09218316	    -15.11567370	    -12.53074153	     -0.68308768	      0.98495664	      0.33226217	    -22.69626623	     11.15171684	     -0.26911893	    -15.92821190	     -5.84468478	      6.79503390	     43.92256097	     22.76281778	    -15.56946175	     27.18939937	    -11.86049193	     -2.14556069	      1.46107727	    -16.89183109	      0.00000000	     -0.02235786	      0.00000000	     -4.74757616	    -14.79035516	     14.52836550	     21.50822223
      0.05416667	      0.05794170	    -15.09251702	    -12.37639377	     -0.67649673	      0.98462059	      0.33154906	    -22.72666778	     11.11515005	     -0.14042672	    -16.27179962	     -5.98726845	      6.74614307	     43.92503135	     22.52900393	    -15.40201383	     27.20359952	    -11.93711050	     -2.11284621	      1.50274214	    -16.84303866	      0.00000000	     -0.02324535	      0.00000000	     -4.81337248	    -14.54725426	     14.54959612	     21.47900371
      0.05833333	     -0.00128580	    -14.78467000	    -12.34265933	     -0.67070234	      0.98450735	      0.33083805	    -22.33000487	     10.75621243	     -0.14108492	    -17.18385474	     -6.80782308	      6.28873821	     43.87094505	     22.37458738	    -14.98282105	     27.19277144	    -12.04262067	     -2.08265926	      1.48509077	    -16.74706642	      0.00000000	     -0.02348488	      0.00000000	     -5.16582208	    -14.45510925	     14.18826424	     21.22582154
      0.06250000	     -0.23186603	    -14.15585855	    -12.13166176	     -0.66363031	      0.98418779	      0.33038561	    -21.89258968	     10.19318227	     -0.64403556	    -17.71483929	     -7.85440847	      5.04215885	     44.10770244	     22.45305103	    -14.18214685	     26.88646863	    -12.27725225	     -2.14822002	      1.46841281	    -16.61461343	      0.00000000	     -0.02349674	      0.00000000	     -5.20476557	    -13.73485577	     13.55968492	     20.72305592
